<svg xmlns="http://www.w3.org/2000/svg" version="1.1" xmlns:xlink="http://www.w3.org/1999/xlink" xmlns:svgjs="http://svgjs.dev/svgjs" viewBox="0 0 800 800"><defs><linearGradient x1="50%" y1="0%" x2="50%" y2="100%" id="ccchaos-grad"><stop stop-color="hsl(340, 45%, 50%)" stop-opacity="1" offset="0%"></stop><stop stop-color="hsl(340, 45%, 80%)" stop-opacity="1" offset="100%"></stop></linearGradient></defs><g stroke-width="4.5" stroke="url(#ccchaos-grad)" fill="none" stroke-linecap="round"><path d="M401.67 211.66C407.76 210.28 413.79 209.37 419.75 208.91 425.71 208.63 431.6 208.81 437.39 209.46 448.98 211.29 460.21 214.92 470.95 220.15 481.68 226 491.91 233.29 501.5 241.75 511.06 250.61 519.95 260.45 528.04 271.02 536.07 281.76 543.26 293.1 549.48 304.83 555.62 316.6 560.76 328.71 564.78 340.99 568.73 353.27 571.57 365.73 573.22 378.22 574.03 384.48 574.54 390.74 574.76 396.99 574.99 403.25 574.92 409.5 574.54 415.71 574.19 421.93 573.55 427.97 572.64 433.81 571.76 439.65 570.61 445.29 569.22 450.71 566.54 461.5 562.88 471.37 558.36 480.19 553.95 488.87 548.67 496.43 542.58 502.77 536.58 508.98 529.74 514.01 522.16 517.86 514.61 521.75 506.28 524.68 497.28 526.75 488.28 529.29 478.59 531.36 468.32 533.13 458.04 535.88 447.17 538.7 435.83 541.67 430.16 543.63 424.37 545.64 418.48 547.7 412.59 550.06 406.6 552.44 400.52 554.82 394.44 557.44 388.41 559.92 382.46 562.25 376.51 564.72 370.64 566.94 364.85 568.9 353.28 572.86 342.06 575.34 331.34 576.17 320.62 576.48 310.39 574.88 300.79 571.45 291.2 567.29 282.24 561.35 274.04 553.89 265.88 545.85 258.49 536.5 252.01 526.16 245.58 515.49 240.08 504.06 235.64 492.15 231.26 480.12 227.94 467.75 225.8 455.26 224.76 449.01 224.01 442.75 223.56 436.48 223.13 430.22 223.01 423.96 223.2 417.72 223.4 411.49 223.92 405.42 224.73 399.52 225.54 393.62 226.64 387.88 228.01 382.32 230.75 371.15 234.56 360.62 239.33 350.72 244.06 340.68 249.72 331.18 256.21 322.21 262.65 312.97 269.92 304.13 277.9 295.72 285.84 286.93 294.52 278.47 303.81 270.4 313.08 261.93 322.99 253.86 333.43 246.35 343.85 238.61 354.82 231.57 366.23 225.5 371.93 222.5 377.74 219.79 383.65 217.41 389.56 215.12 395.57 213.19 401.66 211.67" stroke-dasharray="7 4" transform="rotate(0, 400, 400)" opacity="0.05"></path><path d="M402.09 222.39C413.52 219.87 424.73 219.1 435.58 220.01 446.44 221.56 456.95 224.77 467 229.47 477.03 234.73 486.58 241.34 495.52 249.07 504.44 257.18 512.72 266.25 520.25 276.04 527.72 286.03 534.4 296.61 540.18 307.59 545.89 318.63 550.67 330.02 554.41 341.57 558.09 353.14 560.75 364.87 562.29 376.61 563.81 388.35 564.26 400.11 563.56 411.7 562.92 423.29 561.21 434.14 558.57 444.15 556.03 454.12 552.57 463.19 548.29 471.26 544.12 479.24 539.11 486.19 533.35 492.05 527.67 497.83 521.21 502.58 514.06 506.3 506.94 510.14 499.11 513.15 490.65 515.43 482.2 518.18 473.11 520.53 463.48 522.61 453.84 525.56 443.66 528.53 433.04 531.57 422.42 535.68 411.36 539.92 399.97 544.1 388.58 549.11 377.4 553.47 366.56 556.97 355.72 560.61 345.22 562.91 335.17 563.77 325.14 564.22 315.56 562.99 306.57 560.12 297.6 556.65 289.23 551.57 281.56 545.07 273.94 538.06 267.04 529.81 261 520.58 255 511.04 249.88 500.72 245.74 489.85 241.65 478.86 238.57 467.47 236.58 455.88 234.65 444.27 233.82 432.52 234.18 420.77 234.58 409.03 236.13 397.83 238.72 387.23 241.3 376.58 244.89 366.46 249.38 356.89 253.84 347.2 259.18 337.96 265.29 329.18 271.36 320.17 278.21 311.52 285.74 303.26 293.22 294.68 301.39 286.41 310.14 278.54 318.87 270.35 328.19 262.56 338.01 255.34 347.81 247.95 358.11 241.26 368.83 235.5 379.53 229.87 390.65 225.41 402.08 222.39" stroke-dasharray="8 2" transform="rotate(8.133333333333333, 400, 400)" opacity="0.11"></path><path d="M402.45 233.11C413.12 230.69 423.58 229.87 433.7 230.6 443.83 231.88 453.62 234.69 462.96 238.87 472.3 243.55 481.17 249.5 489.48 256.5 497.75 263.86 505.43 272.14 512.4 281.12 519.32 290.31 525.51 300.09 530.85 310.27 536.13 320.54 540.56 331.14 544.04 341.91 547.45 352.72 549.92 363.67 551.37 374.61 552.79 385.56 553.22 396.49 552.59 407.24 551.99 417.99 550.4 428.02 547.92 437.23 545.53 446.42 542.28 454.76 538.25 462.17 534.31 469.53 529.59 475.95 524.17 481.4 518.81 486.84 512.73 491.37 506.02 495.03 499.34 498.83 492 501.93 484.08 504.42 476.17 507.35 467.67 509.94 458.67 512.27 449.68 515.37 440.18 518.44 430.27 521.51 420.36 525.49 410.05 529.49 399.42 533.37 388.8 537.97 378.38 541.93 368.27 545.08 358.16 548.39 348.37 550.51 339.01 551.35 329.66 551.9 320.74 550.96 312.38 548.56 304.02 545.69 296.23 541.37 289.11 535.74 282.02 529.68 275.61 522.45 270 514.27 264.44 505.81 259.68 496.56 255.85 486.72 252.06 476.77 249.2 466.36 247.36 455.68 245.58 444.98 244.81 434.05 245.16 423.05 245.54 412.05 247 401.49 249.42 391.41 251.84 381.3 255.21 371.62 259.42 362.41 263.6 353.09 268.61 344.15 274.34 335.61 280.04 326.88 286.47 318.46 293.53 310.41 300.55 302.09 308.22 294.07 316.42 286.45 324.6 278.59 333.33 271.13 342.52 264.24 351.7 257.23 361.35 250.9 371.37 245.47 381.38 240.18 391.77 235.98 402.45 233.11" stroke-dasharray="3 1" transform="rotate(16.266666666666666, 400, 400)" opacity="0.18"></path><path d="M402.72 243.84C412.64 241.52 422.34 240.67 431.73 241.22 441.12 242.26 450.19 244.69 458.84 248.37 467.47 252.5 475.68 257.79 483.34 264.07 490.98 270.68 498.07 278.17 504.49 286.33 510.87 294.69 516.57 303.63 521.49 312.97 526.36 322.42 530.45 332.19 533.65 342.14 536.81 352.13 539.11 362.26 540.45 372.38 541.78 382.51 542.19 392.61 541.61 402.52 541.06 412.43 539.58 421.65 537.28 430.12 535.04 438.57 531.99 446.23 528.22 453.06 524.52 459.86 520.09 465.83 515.02 470.95 510 476.09 504.31 480.46 498.03 484.07 491.78 487.85 484.93 491.05 477.55 493.72 470.18 496.8 462.27 499.58 453.91 502.11 445.54 505.3 436.72 508.42 427.52 511.48 418.32 515.3 408.75 519.07 398.9 522.65 389.04 526.84 379.38 530.41 370 533.23 360.63 536.21 351.56 538.14 342.88 538.94 334.22 539.53 325.96 538.82 318.21 536.82 310.48 534.45 303.27 530.79 296.69 525.93 290.13 520.73 284.21 514.44 279.03 507.24 273.9 499.8 269.51 491.57 265.97 482.74 262.48 473.8 259.84 464.36 258.15 454.59 256.5 444.79 255.8 434.71 256.14 424.48 256.5 414.24 257.86 404.33 260.12 394.82 262.38 385.27 265.52 376.06 269.44 367.24 273.35 358.33 278.02 349.73 283.37 341.49 288.7 333.08 294.7 324.95 301.28 317.16 307.84 309.17 314.99 301.46 322.64 294.15 330.27 286.66 338.41 279.57 346.97 273.04 355.53 266.45 364.51 260.51 373.83 255.42 383.14 250.48 392.81 246.54 402.72 243.84" stroke-dasharray="1 5" transform="rotate(24.400000000000002, 400, 400)" opacity="0.24"></path><path d="M402.9 254.56C412.06 252.36 421.01 251.49 429.67 251.89 438.32 252.7 446.67 254.77 454.62 257.97 462.57 261.57 470.1 266.23 477.14 271.8 484.15 277.67 490.64 284.36 496.53 291.69 502.38 299.22 507.6 307.31 512.11 315.78 516.58 324.37 520.32 333.29 523.27 342.38 526.18 351.52 528.29 360.8 529.53 370.07 530.77 379.36 531.16 388.62 530.63 397.7 530.13 406.78 528.76 415.24 526.63 423 524.55 430.75 521.72 437.8 518.21 444.1 514.76 450.39 510.63 455.97 505.91 460.8 501.23 465.69 495.93 469.91 490.1 473.5 484.29 477.27 477.93 480.53 471.09 483.35 464.26 486.54 456.94 489.45 449.2 492.12 441.47 495.36 433.31 498.48 424.82 501.48 416.33 505.12 407.49 508.64 398.41 511.93 389.32 515.72 380.4 518.92 371.76 521.42 363.13 524.08 354.77 525.81 346.78 526.54 338.8 527.14 331.2 526.6 324.07 524.92 316.96 522.98 310.34 519.88 304.29 515.71 298.27 511.28 292.84 505.84 288.09 499.53 283.37 493.04 279.35 485.78 276.1 477.91 272.9 469.94 270.49 461.45 268.94 452.58 267.44 443.68 266.8 434.45 267.12 424.99 267.46 415.54 268.72 406.31 270.82 397.38 272.91 388.42 275.82 379.73 279.46 371.35 283.08 362.89 287.41 354.69 292.37 346.8 297.31 338.77 302.88 331 308.99 323.54 315.07 315.92 321.71 308.59 328.8 301.64 335.87 294.57 343.42 287.89 351.35 281.77 359.27 275.61 367.58 270.08 376.2 265.35 384.82 260.76 393.75 257.1 402.9 254.56" stroke-dasharray="3 4" transform="rotate(32.53333333333333, 400, 400)" opacity="0.30"></path><path d="M402.99 265.28C411.38 263.21 419.58 262.34 427.5 262.59 435.42 263.2 443.05 264.93 450.31 267.69 457.57 270.77 464.44 274.83 470.85 279.71 477.24 284.86 483.16 290.77 488.51 297.28 493.84 303.97 498.6 311.19 502.7 318.8 506.77 326.51 510.19 334.54 512.88 342.76 515.54 351.03 517.48 359.44 518.62 367.85 519.76 376.29 520.12 384.71 519.65 392.97 519.2 401.24 517.95 408.94 515.98 416.03 514.07 423.12 511.45 429.59 508.21 435.41 505.02 441.25 501.2 446.46 496.83 451.04 492.5 455.69 487.61 459.79 482.22 463.35 476.86 467.08 470.99 470.39 464.69 473.31 458.4 476.56 451.67 479.56 444.56 482.31 437.45 485.53 429.97 488.61 422.18 491.52 414.39 494.95 406.29 498.21 397.97 501.2 389.64 504.62 381.48 507.46 373.58 509.65 365.68 512 358.03 513.52 350.73 514.17 343.44 514.74 336.49 514.31 329.99 512.91 323.49 511.3 317.45 508.69 311.93 505.12 306.44 501.35 301.49 496.67 297.17 491.19 292.87 485.56 289.2 479.2 286.26 472.24 283.34 465.2 281.14 457.63 279.74 449.64 278.37 441.63 277.8 433.24 278.1 424.58 278.42 415.92 279.58 407.39 281.51 399.08 283.44 390.76 286.11 382.62 289.46 374.73 292.79 366.78 296.78 359.04 301.35 351.55 305.9 343.97 311.03 336.62 316.66 329.55 322.26 322.38 328.37 315.47 334.9 308.95 341.41 302.33 348.36 296.11 355.65 290.42 362.93 284.72 370.57 279.61 378.49 275.25 386.4 271.02 394.59 267.65 402.99 265.28" stroke-dasharray="7 9" transform="rotate(40.666666666666664, 400, 400)" opacity="0.37"></path><path d="M402.97 276.01C410.6 274.07 418.05 273.2 425.24 273.33 432.42 273.76 439.34 275.18 445.91 277.52 452.48 280.13 458.7 283.6 464.5 287.83 470.28 292.29 475.62 297.43 480.46 303.14 485.27 309 489.57 315.37 493.28 322.1 496.96 328.93 500.05 336.08 502.49 343.41 504.9 350.79 506.67 358.33 507.71 365.89 508.75 373.46 509.09 381.04 508.67 388.51 508.26 395.97 507.13 402.95 505.34 409.4 503.59 415.85 501.2 421.78 498.23 427.16 495.3 432.55 491.8 437.43 487.8 441.78 483.83 446.2 479.34 450.16 474.41 453.66 469.5 457.34 464.13 460.65 458.37 463.62 452.62 466.87 446.48 469.88 439.99 472.65 433.52 475.81 426.7 478.8 419.61 481.58 412.52 484.78 405.16 487.78 397.6 490.48 390.03 493.52 382.63 496.02 375.45 497.93 368.28 499.98 361.35 501.29 354.73 501.84 348.12 502.35 341.83 502.01 335.94 500.81 327.33 498.38 312.41 489.03 306.27 482.3 302.39 477.44 299.08 471.91 296.42 465.81 293.79 459.63 291.8 452.94 290.55 445.81 289.31 438.66 288.8 431.11 289.08 423.25 289.37 415.39 290.44 407.6 292.2 399.95 293.95 392.28 296.4 384.74 299.45 377.39 302.49 370.01 306.13 362.78 310.3 355.77 314.46 348.71 319.14 341.83 324.28 335.23 329.4 328.55 334.97 322.13 340.93 316.07 346.88 309.96 353.21 304.23 359.86 299 366.51 293.78 373.47 289.11 380.68 285.13 387.88 281.28 395.34 278.19 402.97 276.01" stroke-dasharray="10 10" transform="rotate(48.800000000000004, 400, 400)" opacity="0.43"></path><path d="M402.86 286.73C409.72 284.94 416.42 284.09 422.87 284.12 429.32 284.39 435.53 285.53 441.42 287.47 447.31 289.64 452.89 292.57 458.07 296.18 463.25 299.97 468.03 304.38 472.36 309.31 476.67 314.37 480.52 319.9 483.84 325.77 487.14 331.73 489.91 337.99 492.1 344.45 494.27 350.95 495.86 357.61 496.81 364.31 497.75 371.04 498.06 377.79 497.69 384.46 497.33 391.14 496.31 397.41 494.7 403.25 492.03 411.78 484.01 426.67 478.79 433.06 473.15 439.14 459.76 449.67 452.12 454.26 446.92 457.46 441.36 460.43 435.51 463.16 429.66 466.19 423.51 469.05 417.13 471.67 410.74 474.62 404.11 477.34 397.31 479.75 390.51 482.44 383.85 484.62 377.4 486.25 370.96 488.01 364.74 489.12 358.81 489.56 350.06 489.85 334.25 486.62 327.34 483.09 320.89 478.68 310.45 466.37 306.6 458.67 304.25 453.31 302.48 447.44 301.36 441.14 300.25 434.83 299.8 428.11 300.06 421.07 300.33 414.01 301.29 406.97 302.88 400.01 304.47 393.04 306.67 386.15 309.43 379.4 312.17 372.63 315.47 365.98 319.23 359.51 322.99 353.01 327.22 346.68 331.86 340.6 336.49 334.47 341.53 328.59 346.91 323.04 352.29 317.48 358.01 312.27 364.01 307.52 370 302.8 376.28 298.59 382.78 295 389.27 291.52 395.99 288.72 402.86 286.73" stroke-dasharray="5 6" transform="rotate(56.93333333333334, 400, 400)" opacity="0.49"></path><path d="M402.65 297.45C414.85 294.38 426.41 294.56 436.86 297.56 447.29 301.26 456.57 307.59 464.23 315.83 471.85 324.53 477.83 334.83 481.71 345.98 485.57 357.28 487.38 369.19 486.71 380.99 486.09 392.8 483.12 403.33 478.3 412.35 473.57 421.47 466.96 429.3 458.95 435.77 450.99 442.73 441.57 448.79 431.12 453.81 420.69 459.78 409.2 465.02 397.11 469.03 385.02 473.9 373.47 476.71 362.95 477.35 352.44 478.06 343 476.15 335.11 471.78 327.26 467.15 321 460.06 316.79 450.94 312.65 441.67 310.58 430.57 311.04 418.09 311.53 405.61 314.49 392.99 319.39 380.8 324.29 368.57 331.12 356.68 339.4 345.7 347.66 334.64 357.37 324.5 368.07 315.99 378.75 307.64 390.44 301.19 402.65 297.45" stroke-dasharray="4 6" transform="rotate(65.06666666666666, 400, 400)" opacity="0.56"></path><path d="M402.34 308.18C413.02 305.39 423.11 305.39 432.22 307.78 441.32 310.71 449.41 315.88 456.08 322.75 462.72 329.96 467.93 338.62 471.33 348.11 474.71 357.71 476.3 367.95 475.73 378.23 475.2 388.51 472.59 397.85 468.35 405.99 464.18 414.22 458.36 421.47 451.3 427.59 444.28 434.1 435.99 439.84 426.81 444.61 417.65 450.08 407.59 454.79 397.01 458.31 386.43 462.47 376.34 464.78 367.17 465.22 358.01 465.76 349.79 464.1 342.92 460.36 336.09 456.48 330.65 450.5 327 442.73 323.4 434.85 321.6 425.31 322.02 414.45 322.46 403.59 325.05 392.48 329.35 381.68 333.65 370.87 339.65 360.32 346.91 350.58 354.16 340.81 362.69 331.89 372.06 324.42 381.44 317.12 391.67 311.48 402.34 308.18" stroke-dasharray="1 11" transform="rotate(73.2, 400, 400)" opacity="0.62"></path><path d="M401.97 318.9C411.11 316.43 419.74 316.28 427.53 318.13 435.3 320.37 442.21 324.5 447.91 330.08 453.58 335.91 458.05 343.01 460.96 350.9 463.86 358.87 465.23 367.48 464.75 376.28 464.3 385.06 462.06 393.19 458.41 400.41 454.81 407.71 449.79 414.27 443.7 419.92 437.64 425.86 430.5 431.14 422.6 435.53 414.72 440.42 406.07 444.57 397.01 447.58 387.94 451.07 379.31 452.92 371.47 453.18 363.65 453.54 356.63 452.09 350.78 448.92 344.96 445.68 340.32 440.69 337.22 434.16 334.16 427.57 332.63 419.52 333 410.27 333.38 401.01 335.61 391.47 339.3 382.15 343 372.83 348.15 363.71 354.39 355.28 360.62 346.88 367.94 339.22 375.99 332.82 384.04 326.58 392.82 321.76 401.97 318.9" stroke-dasharray="5 6" transform="rotate(81.33333333333333, 400, 400)" opacity="0.68"></path><path d="M401.52 329.62C409.13 327.5 416.32 327.25 422.78 328.63 429.25 330.27 434.99 333.45 439.72 337.84 444.44 342.4 448.16 348.05 450.59 354.42 453.01 360.85 454.16 367.89 453.77 375.2 453.4 382.51 451.53 389.4 448.48 395.63 445.45 401.93 441.24 407.69 436.14 412.74 431.06 417.99 425.08 422.68 418.47 426.58 411.88 430.81 404.66 434.35 397.1 436.86 389.55 439.69 382.37 441.12 375.86 441.23 366.45 440.8 351.95 432.78 347.46 425.38 344.92 419.99 343.66 413.37 343.98 405.71 344.3 398.05 346.16 390.11 349.24 382.31 352.33 374.54 356.63 366.92 361.84 359.88 367.04 352.88 373.16 346.51 379.87 341.21 386.59 336.03 393.91 332.02 401.52 329.62" stroke-dasharray="4 4" transform="rotate(89.46666666666665, 400, 400)" opacity="0.75"></path><path d="M401.02 340.35C413.19 337.04 423.97 339.53 431.53 346.04 439.08 352.98 443.42 363.35 442.79 375.05 442.21 386.74 436.85 397.57 428.63 406.04 420.47 415.02 409.39 422.36 397.3 426.14 385.2 430.73 374.36 430.54 366.65 426.21 358.97 421.88 354.46 413.1 354.95 400.93 355.49 388.76 360.92 375.66 369.26 364.41 377.6 353.33 388.85 344.37 401.02 340.35" stroke-dasharray="8 4" transform="rotate(97.60000000000001, 400, 400)" opacity="0.81"></path><path d="M400.49 351.07C409.61 348.47 417.68 350.09 423.34 354.7 429 359.54 432.27 367.03 431.81 375.82 431.38 384.6 427.34 393.02 421.15 399.78 414.99 406.81 406.66 412.54 397.58 415.41 388.51 418.74 380.4 418.43 374.65 415.07 368.91 411.75 365.55 405.18 365.93 396.13 366.34 387.06 370.42 377.31 376.67 368.96 382.94 360.73 391.37 354.08 400.49 351.07" stroke-dasharray="10 5" transform="rotate(105.73333333333333, 400, 400)" opacity="0.87"></path><path d="M399.94 361.8C412.09 358.37 421.44 365.74 420.83 377.49 420.28 389.23 410.06 401.03 397.95 404.69 385.83 409.14 376.4 403.45 376.91 391.46 377.48 379.46 387.79 365.96 399.94 361.8" stroke-dasharray="8 5" transform="rotate(113.86666666666667, 400, 400)" opacity="0.94"></path></g></svg>