<svg xmlns="http://www.w3.org/2000/svg" version="1.1" xmlns:xlink="http://www.w3.org/1999/xlink" xmlns:svgjs="http://svgjs.dev/svgjs" viewBox="0 0 800 800"><g transform="matrix(1,0,0,1,0,0)"><circle r="2" cx="345" cy="800" stroke-width="0.5" stroke="#ff3895" fill="none" opacity="0.01" transform="matrix(-0.30291903196909126,0.6293203910498377,-1.214941877826768,-0.7771459614569707,1267.4754397509491,459.1302281628532)"></circle><circle r="6.352941176470588" cx="346.61764705882354" cy="788.2352941176471" stroke-width="0.9558823529411764" stroke="#fc3d99" fill="none" opacity="0.03911764705882353" transform="matrix(-0.23434512927768542,0.6838732483643283,-1.2122445200252878,-0.7296008361916958,1210.206133761545,418.291035130947)"></circle><circle r="10.705882352941176" cx="348.2352941176471" cy="776.4705882352941" stroke-width="1.4117647058823528" stroke="#f9429d" fill="none" opacity="0.06823529411764706" transform="matrix(-0.16705688430294208,0.7348449670469757,-1.206643842216196,-0.678235117349234,1153.5596795928407,377.35606012090335)"></circle><circle r="15.058823529411764" cx="349.8529411764706" cy="764.7058823529412" stroke-width="1.8676470588235294" stroke="#f646a1" fill="none" opacity="0.09735294117647059" transform="matrix(-0.10111331175275329,0.7819686309823418,-1.1982248870817862,-0.6233177842478121,1097.7334028430269,336.5396613061881)"></circle><circle r="19.41176470588235" cx="351.47058823529414" cy="752.9411764705883" stroke-width="2.3235294117647056" stroke="#f24aa5" fill="none" opacity="0.1264705882352941" transform="matrix(-0.03657328660732895,0.8249974745983023,-1.18707163851614,-0.5651364144225919,1042.8997203385102,296.0555759297158)"></circle><circle r="23.76470588235294" cx="353.0882352941176" cy="741.1764705882352" stroke-width="2.7794117647058822" stroke="#ef4ea9" fill="none" opacity="0.15558823529411767" transform="matrix(0.026504643114764748,0.8637061750670888,-1.1732673156937783,-0.5039956777106123,989.2067526962097,256.1158010574094)"></circle><circle r="28.11764705882353" cx="354.70588235294116" cy="729.4117647058823" stroke-width="3.235294117647059" stroke="#ec51ad" fill="none" opacity="0.1847058823529412" transform="matrix(0.08806243064529745,0.8978920322202582,-1.1568946274946805,-0.4402157408309873,936.7792655410366,216.92948344429163)"></circle><circle r="32.470588235294116" cx="356.3235294117647" cy="717.6470588235294" stroke-width="3.691176470588235" stroke="#e855b0" fill="none" opacity="0.21382352941176472" transform="matrix(0.14804269312814206,0.9273760299989036,-1.138035991988171,-0.3741305908148553,885.7195187727486,178.7018243263807)"></circle><circle r="36.8235294117647" cx="357.94117647058823" cy="705.8823529411765" stroke-width="4.147058823529411" stroke="#e558b4" fill="none" opacity="0.24294117647058824" transform="matrix(0.20638886377391946,0.9520037738807672,-1.1167737250281038,-0.30608628606452953,836.1082547797694,141.63300487350494)"></circle><circle r="41.17647058823529" cx="359.55882352941177" cy="694.1176470588235" stroke-width="4.602941176470588" stroke="#e15bb7" fill="none" opacity="0.2720588235294118" transform="matrix(0.26304533446014877,0.9716462993753655,-1.0931902014637183,-0.2364391442002731,788.0059054206783,105.91713792996302)"></circle><circle r="45.52941176470588" cx="361.1764705882353" cy="682.3529411764706" stroke-width="5.0588235294117645" stroke="#de5ebb" fill="none" opacity="0.3011764705882353" transform="matrix(0.3179575895883539,0.9862007473534026,-1.0673679920071124,-0.1655538761841301,741.4536016702685,71.74125153229102)"></circle><circle r="49.882352941176464" cx="362.79411764705884" cy="670.5882352941176" stroke-width="5.514705882352941" stroke="#da61be" fill="none" opacity="0.33029411764705885" transform="matrix(0.3710723318900708,0.9955909026740698,-1.039389978405314,-0.09380167649157954,696.4746197598269,39.28430952700387)"></circle><circle r="54.23529411764706" cx="364.4117647058824" cy="658.8235294117646" stroke-width="5.970588235294118" stroke="#d764c1" fill="none" opacity="0.3594117647058824" transform="matrix(0.4223376007723067,0.9997675932896838,-1.0093394492308134,-0.021558279331927277,653.0756248222436,8.716274416897363)"></circle><circle r="58.588235294117645" cx="366.02941176470586" cy="647.0588235294117" stroke-width="6.426470588235294" stroke="#d367c4" fill="none" opacity="0.3885294117647059" transform="matrix(0.47170288370680397,0.9987089477377294,-0.9773001783196197,0.05079800890386559,611.2480725965846,-19.802782656638044)"></circle><circle r="62.94117647058823" cx="367.6470588235294" cy="635.2941176470588" stroke-width="6.88235294117647" stroke="#cf6ac8" fill="none" opacity="0.4176470588235294" transform="matrix(0.5191192210939839,0.9924205096719357,-0.943356487642566,0.12288829066471427,570.9696590739485,-46.12352013466)"></circle><circle r="67.29411764705881" cx="369.2647058823529" cy="623.5294117647059" stroke-width="7.338235294117647" stroke="#cb6dcb" fill="none" opacity="0.44676470588235295" transform="matrix(0.564539304969801,0.9809352088326387,-0.9075932961871962,0.1943350613565845,532.2058631188694,-70.1081080756893)"></circle><circle r="71.6470588235294" cx="370.88235294117646" cy="611.7647058823529" stroke-width="7.794117647058823" stroke="#c86fce" fill="none" opacity="0.4758823529411765" transform="matrix(0.607917571870156,0.9643131886084448,-0.8700961562487323,0.264764186165376,494.91141028397567,-91.63094990952834)"></circle><circle r="76" cx="372.5" cy="600" stroke-width="8.25" stroke="#c472d1" fill="none" opacity="0.505" transform="matrix(0.6492102901216692,0.9426414910921783,-0.8309512783748711,0.3338068592337711,459.0319471072364,-110.57934013037976)"></circle><circle r="80.35294117647058" cx="374.11764705882354" cy="588.2352941176471" stroke-width="8.705882352941176" stroke="#bf74d4" fill="none" opacity="0.5341176470588236" transform="matrix(0.6883756417883456,0.9160336012803334,-0.7902455460767174,0.40110153493271894,424.50553778801145,-126.85405448522101)"></circle><circle r="84.70588235294117" cx="375.7352941176471" cy="576.4705882352941" stroke-width="9.161764705882353" stroke="#bb77d7" fill="none" opacity="0.5632352941176471" transform="matrix(0.7253737994699844,0.8846288528028554,-0.7480665213039197,0.46629582111434803,391.26430058234484,-140.36986956688133)"></circle><circle r="89.05882352941175" cx="377.3529411764706" cy="564.7058823529412" stroke-width="9.617647058823529" stroke="#b779da" fill="none" opacity="0.5923529411764706" transform="matrix(0.7601669981192781,0.8485916982951774,-0.7045024415833914,0.5290483244321889,359.23598888824677,-151.05600909094653)"></circle><circle r="93.41176470588235" cx="378.97058823529414" cy="552.9411764705883" stroke-width="10.073529411764707" stroke="#b37cdd" fill="none" opacity="0.6214705882352941" transform="matrix(0.792719602019739,0.8081108482332512,-0.6596422096356691,0.5890304380655852,328.3455443726242,-158.85651451953458)"></circle><circle r="97.76470588235293" cx="380.5882352941176" cy="541.1764705882352" stroke-width="10.529411764705882" stroke="#ae7edf" fill="none" opacity="0.6505882352941177" transform="matrix(0.8229981670452837,0.7633982827411028,-0.6135753762091122,0.6459280624867875,298.51666448709193,-163.73053809115606)"></circle><circle r="102.11764705882352" cx="382.20588235294116" cy="529.4117647058823" stroke-width="10.985294117647058" stroke="#aa80e2" fill="none" opacity="0.6797058823529412" transform="matrix(0.850971498303998,0.714688141545642,-0.5663921168082264,0.6994432502598309,269.6733134407692,-165.65255672218916)"></circle><circle r="106.47058823529412" cx="383.8235294117647" cy="517.6470588235294" stroke-width="11.441176470588236" stroke="#a582e5" fill="none" opacity="0.7088235294117647" transform="matrix(0.8766107032528908,0.6622354978915301,-0.5181832029370537,0.7492957662581293,241.74116579108443,-164.6125056598637)"></circle><circle r="110.8235294117647" cx="385.44117647058823" cy="505.88235294117646" stroke-width="11.897058823529411" stroke="#a085e8" fill="none" opacity="0.7379411764705882" transform="matrix(0.89988924035694,0.6063150228365712,-0.4690399684306982,0.7952245551306173,214.64907452171508,-160.61583118687543)"></circle><circle r="115.17647058823529" cx="387.05882352941177" cy="494.11764705882354" stroke-width="12.352941176470589" stroke="#9b87ea" fill="none" opacity="0.7670588235294118" transform="matrix(0.9207829633541317,0.547219546922111,-0.4190542714066986,0.8369891083319779,188.33030493798273,-153.68346210163554)"></circle><circle r="119.52941176470587" cx="388.6764705882353" cy="482.35294117647055" stroke-width="12.808823529411764" stroke="#9689ed" fill="none" opacity="0.7961764705882353" transform="matrix(0.93927016117824,0.4852585267503349,-0.3683184523323053,0.8743707235584312,162.7238490833427,-143.85170012350636)"></circle><circle r="123.88235294117646" cx="390.29411764705884" cy="470.5882352941176" stroke-width="13.26470588235294" stroke="#918bf0" fill="none" opacity="0.8252941176470588" transform="matrix(0.9553315935825124,0.42075642449831496,-0.31692528867310066,0.9071736499939765,137.77563829742243,-131.1720297969166)"></circle><circle r="128.23529411764704" cx="391.9117647058824" cy="458.8235294117647" stroke-width="13.720588235294118" stroke="#8b8df2" fill="none" opacity="0.8544117647058823" transform="matrix(0.9689505225000697,0.3540510088545649,-0.26496794656221984,0.9352261133699512,113.43955854433744,-115.71084888980647)"></circle><circle r="132.58823529411762" cx="393.52941176470586" cy="447.0588235294117" stroke-width="14.176470588235293" stroke="#858ff5" fill="none" opacity="0.8835294117647059" transform="matrix(0.9801127391704552,0.2854915862753419,-0.21253992990724124,0.9583812154701223,89.67847170938023,-97.54912069818567)"></circle><circle r="136.94117647058823" cx="395.1470588235294" cy="435.2941176470588" stroke-width="14.632352941176471" stroke="#7f91f7" fill="none" opacity="0.9126470588235294" transform="matrix(0.9888065870562601,0.21543717182281186,-0.1597350273331626,0.9765177033710082,66.46505397102106,-76.781950077528)"></circle><circle r="141.2941176470588" cx="396.7647058823529" cy="423.52941176470586" stroke-width="15.088235294117647" stroke="#7993fa" fill="none" opacity="0.941764705882353" transform="matrix(0.9950229805689516,0.14425460916358548,-0.10664725734448625,0.9895406043892596,43.78256922740269,-53.51808542113804)"></circle><circle r="145.6470588235294" cx="398.38235294117646" cy="411.7647058823529" stroke-width="15.544117647058822" stroke="#7295fd" fill="none" opacity="0.9708823529411765" transform="matrix(0.9987554196187949,0.07231664957235062,-0.05337081207698399,0.9973817234111672,21.62548686259055,-27.87934919340711)"></circle><circle r="150" cx="400" cy="400" stroke-width="16" stroke="#6b97ff" fill="none" opacity="1" transform="matrix(1,0,0,1,0,0)"></circle></g></svg>