<svg xmlns="http://www.w3.org/2000/svg" version="1.1" xmlns:xlink="http://www.w3.org/1999/xlink" xmlns:svgjs="http://svgjs.dev/svgjs" viewBox="0 0 800 800"><g fill="none" stroke-width="3" stroke="hsl(105, 69%, 30%)" stroke-linecap="round" stroke-dasharray="0 32.5"><line x1="197.5" y1="400" x2="602.5" y2="400" transform="rotate(0, 400, 400)" opacity="0.68"></line><line x1="116" y1="400" x2="684" y2="400" transform="rotate(4, 400, 400)" opacity="0.97"></line><line x1="496.5" y1="400" x2="303.5" y2="400" transform="rotate(8, 400, 400)" opacity="0.09"></line><line x1="570.5" y1="400" x2="229.5" y2="400" transform="rotate(12, 400, 400)" opacity="0.90"></line><line x1="101.5" y1="400" x2="698.5" y2="400" transform="rotate(16, 400, 400)" opacity="0.77"></line><line x1="440.5" y1="400" x2="359.5" y2="400" transform="rotate(20, 400, 400)" opacity="0.61"></line><line x1="516.5" y1="400" x2="283.5" y2="400" transform="rotate(24, 400, 400)" opacity="0.42"></line><line x1="398" y1="400" x2="402" y2="400" transform="rotate(28, 400, 400)" opacity="0.70"></line><line x1="546.5" y1="400" x2="253.5" y2="400" transform="rotate(32, 400, 400)" opacity="0.20"></line><line x1="85.5" y1="400" x2="714.5" y2="400" transform="rotate(36, 400, 400)" opacity="0.88"></line><line x1="145.5" y1="400" x2="654.5" y2="400" transform="rotate(40, 400, 400)" opacity="0.40"></line><line x1="75.5" y1="400" x2="724.5" y2="400" transform="rotate(44, 400, 400)" opacity="0.85"></line><line x1="96" y1="400" x2="704" y2="400" transform="rotate(48, 400, 400)" opacity="0.49"></line><line x1="305.5" y1="400" x2="494.5" y2="400" transform="rotate(52, 400, 400)" opacity="0.31"></line><line x1="228.5" y1="400" x2="571.5" y2="400" transform="rotate(56, 400, 400)" opacity="0.47"></line><line x1="589.5" y1="400" x2="210.5" y2="400" transform="rotate(60, 400, 400)" opacity="0.71"></line><line x1="255" y1="400" x2="545" y2="400" transform="rotate(64, 400, 400)" opacity="0.34"></line><line x1="565" y1="400" x2="235" y2="400" transform="rotate(68, 400, 400)" opacity="0.74"></line><line x1="398" y1="400" x2="402" y2="400" transform="rotate(72, 400, 400)" opacity="0.51"></line><line x1="688" y1="400" x2="112" y2="400" transform="rotate(76, 400, 400)" opacity="0.20"></line><line x1="39" y1="400" x2="761" y2="400" transform="rotate(80, 400, 400)" opacity="0.58"></line><line x1="231" y1="400" x2="569" y2="400" transform="rotate(84, 400, 400)" opacity="0.23"></line><line x1="238.5" y1="400" x2="561.5" y2="400" transform="rotate(88, 400, 400)" opacity="0.57"></line><line x1="97.5" y1="400" x2="702.5" y2="400" transform="rotate(92, 400, 400)" opacity="0.62"></line><line x1="546" y1="400" x2="254" y2="400" transform="rotate(96, 400, 400)" opacity="0.56"></line><line x1="389" y1="400" x2="411" y2="400" transform="rotate(100, 400, 400)" opacity="0.45"></line><line x1="33" y1="400" x2="767" y2="400" transform="rotate(104, 400, 400)" opacity="0.37"></line><line x1="646" y1="400" x2="154" y2="400" transform="rotate(108, 400, 400)" opacity="0.11"></line><line x1="86" y1="400" x2="714" y2="400" transform="rotate(112, 400, 400)" opacity="0.61"></line><line x1="528" y1="400" x2="272" y2="400" transform="rotate(116, 400, 400)" opacity="0.81"></line><line x1="187" y1="400" x2="613" y2="400" transform="rotate(120, 400, 400)" opacity="0.73"></line><line x1="637.5" y1="400" x2="162.5" y2="400" transform="rotate(124, 400, 400)" opacity="0.97"></line><line x1="655" y1="400" x2="145" y2="400" transform="rotate(128, 400, 400)" opacity="0.56"></line><line x1="381.5" y1="400" x2="418.5" y2="400" transform="rotate(132, 400, 400)" opacity="0.19"></line><line x1="164" y1="400" x2="636" y2="400" transform="rotate(136, 400, 400)" opacity="0.38"></line><line x1="415.5" y1="400" x2="384.5" y2="400" transform="rotate(140, 400, 400)" opacity="0.27"></line><line x1="366.5" y1="400" x2="433.5" y2="400" transform="rotate(144, 400, 400)" opacity="0.87"></line><line x1="625.5" y1="400" x2="174.5" y2="400" transform="rotate(148, 400, 400)" opacity="0.54"></line><line x1="678.5" y1="400" x2="121.5" y2="400" transform="rotate(152, 400, 400)" opacity="0.60"></line><line x1="629" y1="400" x2="171" y2="400" transform="rotate(156, 400, 400)" opacity="0.29"></line><line x1="222" y1="400" x2="578" y2="400" transform="rotate(160, 400, 400)" opacity="0.50"></line><line x1="680" y1="400" x2="120" y2="400" transform="rotate(164, 400, 400)" opacity="0.29"></line><line x1="249" y1="400" x2="551" y2="400" transform="rotate(168, 400, 400)" opacity="0.13"></line><line x1="390.5" y1="400" x2="409.5" y2="400" transform="rotate(172, 400, 400)" opacity="0.78"></line><line x1="641.5" y1="400" x2="158.5" y2="400" transform="rotate(176, 400, 400)" opacity="0.56"></line><line x1="481.5" y1="400" x2="318.5" y2="400" transform="rotate(180, 400, 400)" opacity="0.98"></line><line x1="41" y1="400" x2="759" y2="400" transform="rotate(184, 400, 400)" opacity="0.12"></line><line x1="129.5" y1="400" x2="670.5" y2="400" transform="rotate(188, 400, 400)" opacity="0.91"></line><line x1="649.5" y1="400" x2="150.5" y2="400" transform="rotate(192, 400, 400)" opacity="0.29"></line><line x1="190.5" y1="400" x2="609.5" y2="400" transform="rotate(196, 400, 400)" opacity="0.78"></line><line x1="27.5" y1="400" x2="772.5" y2="400" transform="rotate(200, 400, 400)" opacity="0.07"></line><line x1="740" y1="400" x2="60" y2="400" transform="rotate(204, 400, 400)" opacity="0.59"></line><line x1="693.5" y1="400" x2="106.5" y2="400" transform="rotate(208, 400, 400)" opacity="0.32"></line><line x1="110.5" y1="400" x2="689.5" y2="400" transform="rotate(212, 400, 400)" opacity="0.89"></line><line x1="493" y1="400" x2="307" y2="400" transform="rotate(216, 400, 400)" opacity="0.91"></line><line x1="691" y1="400" x2="109" y2="400" transform="rotate(220, 400, 400)" opacity="0.86"></line><line x1="170" y1="400" x2="630" y2="400" transform="rotate(224, 400, 400)" opacity="0.20"></line><line x1="222.5" y1="400" x2="577.5" y2="400" transform="rotate(228, 400, 400)" opacity="0.41"></line><line x1="666" y1="400" x2="134" y2="400" transform="rotate(232, 400, 400)" opacity="0.77"></line><line x1="433.5" y1="400" x2="366.5" y2="400" transform="rotate(236, 400, 400)" opacity="0.51"></line><line x1="573.5" y1="400" x2="226.5" y2="400" transform="rotate(240, 400, 400)" opacity="0.82"></line><line x1="160.5" y1="400" x2="639.5" y2="400" transform="rotate(244, 400, 400)" opacity="0.78"></line><line x1="411" y1="400" x2="389" y2="400" transform="rotate(248, 400, 400)" opacity="0.73"></line><line x1="679" y1="400" x2="121" y2="400" transform="rotate(252, 400, 400)" opacity="0.44"></line><line x1="576.5" y1="400" x2="223.5" y2="400" transform="rotate(256, 400, 400)" opacity="0.80"></line><line x1="467" y1="400" x2="333" y2="400" transform="rotate(260, 400, 400)" opacity="0.66"></line><line x1="470.5" y1="400" x2="329.5" y2="400" transform="rotate(264, 400, 400)" opacity="0.70"></line><line x1="258" y1="400" x2="542" y2="400" transform="rotate(268, 400, 400)" opacity="0.65"></line><line x1="675" y1="400" x2="125" y2="400" transform="rotate(272, 400, 400)" opacity="0.20"></line><line x1="351" y1="400" x2="449" y2="400" transform="rotate(276, 400, 400)" opacity="0.09"></line><line x1="485" y1="400" x2="315" y2="400" transform="rotate(280, 400, 400)" opacity="0.55"></line><line x1="482" y1="400" x2="318" y2="400" transform="rotate(284, 400, 400)" opacity="0.96"></line><line x1="578" y1="400" x2="222" y2="400" transform="rotate(288, 400, 400)" opacity="0.09"></line><line x1="189.5" y1="400" x2="610.5" y2="400" transform="rotate(292, 400, 400)" opacity="0.84"></line><line x1="225.5" y1="400" x2="574.5" y2="400" transform="rotate(296, 400, 400)" opacity="0.17"></line><line x1="229" y1="400" x2="571" y2="400" transform="rotate(300, 400, 400)" opacity="0.76"></line><line x1="345.5" y1="400" x2="454.5" y2="400" transform="rotate(304, 400, 400)" opacity="0.42"></line><line x1="181" y1="400" x2="619" y2="400" transform="rotate(308, 400, 400)" opacity="0.67"></line><line x1="167" y1="400" x2="633" y2="400" transform="rotate(312, 400, 400)" opacity="0.74"></line><line x1="709" y1="400" x2="91" y2="400" transform="rotate(316, 400, 400)" opacity="0.55"></line><line x1="400" y1="400" x2="400" y2="400" transform="rotate(320, 400, 400)" opacity="0.75"></line><line x1="727.5" y1="400" x2="72.5" y2="400" transform="rotate(324, 400, 400)" opacity="0.57"></line><line x1="238.5" y1="400" x2="561.5" y2="400" transform="rotate(328, 400, 400)" opacity="0.87"></line><line x1="509.5" y1="400" x2="290.5" y2="400" transform="rotate(332, 400, 400)" opacity="0.38"></line><line x1="341" y1="400" x2="459" y2="400" transform="rotate(336, 400, 400)" opacity="0.19"></line><line x1="178" y1="400" x2="622" y2="400" transform="rotate(340, 400, 400)" opacity="0.22"></line><line x1="616" y1="400" x2="184" y2="400" transform="rotate(344, 400, 400)" opacity="0.51"></line><line x1="57" y1="400" x2="743" y2="400" transform="rotate(348, 400, 400)" opacity="0.53"></line></g></svg>