<svg xmlns="http://www.w3.org/2000/svg" version="1.1" xmlns:xlink="http://www.w3.org/1999/xlink" xmlns:svgjs="http://svgjs.dev/svgjs" viewBox="0 0 800 800"><defs><linearGradient x1="50%" y1="0%" x2="50%" y2="100%" id="wwwhirl-grad"><stop stop-color="hsla(0, 98%, 60%, 0.20)" stop-opacity="1" offset="45%"></stop><stop stop-color="hsla(229, 98%, 80%, 1.00)" stop-opacity="1" offset="100%"></stop></linearGradient></defs><g stroke-width="2" stroke="url(#wwwhirl-grad)" fill="none" stroke-linecap="round"><path d="M77.5 426.7220060825348C117.8125 406.8177092075348 158.125 340.5540373325348 238.75 347.1048185825348C319.375 353.6555998325348 319.375 445.8704435825348 400 452.9251310825348C480.625 459.9798185825348 480.625 376.5833342075348 561.25 375.3235685825348C641.875 374.0638029575348 682.1875 429.7454435825348 722.5 447.8860685825348 " transform="rotate(247.25, 400, 400)"></path><path d="M85 426.1005702018738C124.375 406.6591639518738 163.75 341.9365077018738 242.5 348.3349452018738C321.25 354.7333827018738 321.25 444.8036952018738 400 451.6943202018738C478.75 458.5849452018738 478.75 377.1279139518738 557.5 375.8974452018738C636.25 374.6669764518738 675.625 429.0536952018738 715 446.7724452018738 " transform="rotate(241.5, 400, 400)"></path><path d="M92.5 425.47913432121277C130.9375 406.50061869621277 169.375 343.31897807121277 246.25 349.56507182121277C323.125 355.81116557121277 323.125 443.73694682121277 400 450.46350932121277C476.875 457.19007182121277 476.875 377.67249369621277 553.75 376.47132182121277C630.625 375.27014994621277 669.0625 428.36194682121277 707.5 445.65882182121277 " transform="rotate(235.75, 400, 400)"></path><path d="M100 424.8576946258545C137.5 406.3420696258545 175 344.7014446258545 250 350.7951946258545C325 356.8889446258545 325 442.6701946258545 400 449.2326946258545C475 455.7951946258545 475 378.2170696258545 550 377.0451946258545C625 375.8733196258545 662.5 427.6701946258545 700 444.5451946258545 " transform="rotate(230, 400, 400)"></path><path d="M107.5 424.2362434864044C144.0625 406.1835091114044 180.625 346.0838997364044 253.75 352.0253059864044C326.875 357.9667122364044 326.875 441.6034309864044 400 448.0018684864044C473.125 454.4003059864044 473.125 378.7616341114044 546.25 377.6190559864044C619.375 376.4764778614044 655.9375 426.9784309864044 692.5 443.4315559864044 " transform="rotate(224.25, 400, 400)"></path><path d="M115 423.6148114204407C150.625 406.0249676704407 186.25 347.4663739204407 257.5 353.2554364204407C328.75 359.0444989204407 328.75 440.5366864204407 400 446.7710614204407C471.25 453.0054364204407 471.25 379.3062176704407 542.5 378.1929364204407C613.75 377.0796551704407 649.375 426.2866864204407 685 442.3179364204407 " transform="rotate(218.5, 400, 400)"></path><path d="M122.5 422.99336791038513C157.1875 405.86641478538513 191.875 348.84883666038513 261.25 354.48555541038513C330.625 360.12227416038513 330.625 439.46993041038513 400 445.54024291038513C469.375 451.61055541038513 469.375 379.85078978538513 538.75 378.76680541038513C608.125 377.68282103538513 642.8125 425.59493041038513 677.5 441.20430541038513 " transform="rotate(212.75, 400, 400)"></path><path d="M130 422.37192821502686C163.75 405.70786571502686 197.5 350.23130321502686 265 355.71567821502686C332.5 361.20005321502686 332.5 438.40317821502686 400 444.30942821502686C467.5 450.21567821502686 467.5 380.39536571502686 535 379.34067821502686C602.5 378.28599071502686 636.25 424.90317821502686 670 440.09067821502686 " transform="rotate(207, 400, 400)"></path><path d="M137.5 421.75048089027405C170.3125 405.54930901527405 203.125 351.61376214027405 268.75 356.94579339027405C334.375 362.27782464027405 334.375 437.33641839027405 400 443.07860589027405C465.625 448.82079339027405 465.625 380.93993401527405 531.25 379.91454339027405C596.875 378.88915276527405 629.6875 424.21141839027405 662.5 438.97704339027405 " transform="rotate(201.25, 400, 400)"></path><path d="M145 421.12904119491577C176.875 405.39075994491577 208.75 352.99622869491577 272.5 358.17591619491577C336.25 363.35560369491577 336.25 436.26966619491577 400 441.84779119491577C463.75 447.42591619491577 463.75 381.48450994491577 527.5 380.48841619491577C591.25 379.49232244491577 623.125 423.51966619491577 655 437.86341619491577 " transform="rotate(195.5, 400, 400)"></path><path d="M152.5 420.50758624076843C183.4375 405.23219561576843 214.375 354.37867999076843 276.25 359.40602374076843C338.125 364.43336749076843 338.125 435.20289874076843 400 440.61696124076843C461.875 446.03102374076843 461.875 382.02907061576843 523.75 381.06227374076843C585.625 380.09547686576843 616.5625 422.82789874076843 647.5 436.74977374076843 " transform="rotate(189.75, 400, 400)"></path><path d="M160 419.8861541748047C190 405.0736541748047 220 355.7611541748047 280 360.6361541748047C340 365.5111541748047 340 434.1361541748047 400 439.3861541748047C460 444.6361541748047 460 382.5736541748047 520 381.6361541748047C580 380.6986541748047 610 422.1361541748047 640 435.6361541748047 " transform="rotate(184, 400, 400)"></path><path d="M167.5 419.2647259235382C196.5625 404.9151165485382 225.625 357.1436321735382 283.75 361.8662884235382C341.875 366.5889446735382 341.875 433.0694134235382 400 438.1553509235382C458.125 443.2412884235382 458.125 383.1182415485382 516.25 382.2100384235382C574.375 381.3018352985382 603.4375 421.4444134235382 632.5 434.5225384235382 " transform="rotate(178.25, 400, 400)"></path><path d="M175 418.6432595252991C203.125 404.7565407752991 231.25 358.5260720252991 287.5 363.0963845252991C343.75 367.6666970252991 343.75 432.0026345252991 400 436.9245095252991C456.25 441.8463845252991 456.25 383.6627907752991 512.5 382.7838845252991C568.75 381.9049782752991 596.875 420.7526345252991 625 433.4088845252991 " transform="rotate(172.5, 400, 400)"></path><path d="M182.5 418.0218274593353C209.6875 404.5979993343353 236.875 359.9085462093353 291.25 364.3265149593353C345.625 368.7444837093353 345.625 430.9358899593353 400 435.6937024593353C454.375 440.4515149593353 454.375 384.2073743343353 508.75 383.3577649593353C563.125 382.5081555843353 590.3125 420.0608899593353 617.5 432.2952649593353 " transform="rotate(166.75, 400, 400)"></path><path d="M190 417.4003915786743C216.25 404.4394540786743 242.5 361.2910165786743 295 365.5566415786743C347.5 369.8222665786743 347.5 429.8691415786743 400 434.4628915786743C452.5 439.0566415786743 452.5 384.7519540786743 505 383.9316415786743C557.5 383.1113290786743 583.75 419.3691415786743 610 431.1816415786743 " transform="rotate(161, 400, 400)"></path><path d="M197.5 416.778936624527C222.8125 404.280889749527 248.125 362.673467874527 298.75 366.786749124527C349.375 370.900030374527 349.375 428.802374124527 400 433.232061624527C450.625 437.661749124527 450.625 385.296514749527 501.25 384.505499124527C551.875 383.714483499527 577.1875 418.677374124527 602.5 430.067999124527 " transform="rotate(155.25, 400, 400)"></path><path d="M205 416.15750074386597C229.375 404.12234449386597 253.75 364.05593824386597 302.5 368.01687574386597C351.25 371.97781324386597 351.25 427.73562574386597 400 432.00125074386597C448.75 436.26687574386597 448.75 385.84109449386597 497.5 385.07937574386597C546.25 384.31765699386597 570.625 417.98562574386597 595 428.95437574386597 " transform="rotate(149.5, 400, 400)"></path><path d="M212.5 415.5360667705536C235.9375 403.9638011455536 259.375 365.4384105205536 306.25 369.2470042705536C353.125 373.0555980205536 353.125 426.6688792705536 400 430.7704417705536C446.875 434.8720042705536 446.875 386.3856761455536 493.75 385.6532542705536C540.625 384.9208323955536 564.0625 417.2938792705536 587.5 427.8407542705536 " transform="rotate(143.75, 400, 400)"></path><path d="M220 414.91461753845215C242.5 403.80524253845215 265 366.82086753845215 310 370.47711753845215C355 374.13336753845215 355 425.60211753845215 400 429.53961753845215C445 433.47711753845215 445 386.93024253845215 490 386.22711753845215C535 385.52399253845215 557.5 416.60211753845215 580 426.72711753845215 " transform="rotate(138, 400, 400)"></path><path d="M227.5 414.29317021369934C249.0625 403.64668583869934 270.625 368.20332646369934 313.75 371.70723271369934C356.875 375.21113896369934 356.875 424.53535771369934 400 428.30879521369934C443.125 432.08223271369934 443.125 387.47481083869934 486.25 386.80098271369934C529.375 386.12715458869934 550.9375 415.91035771369934 572.5 425.61348271369934 " transform="rotate(132.25, 400, 400)"></path><path d="M235 413.6717324256897C255.625 403.4881386756897 276.25 369.5857949256897 317.5 372.9373574256897C358.75 376.2889199256897 358.75 423.4686074256897 400 427.0779824256897C441.25 430.6873574256897 441.25 388.0193886756897 482.5 387.3748574256897C523.75 386.7303261756897 544.375 415.2186074256897 565 424.4998574256897 " transform="rotate(126.5, 400, 400)"></path><path d="M242.5 413.0502927303314C262.1875 403.3295896053314 281.875 370.9682614803314 321.25 374.1674802303314C360.625 377.3666989803314 360.625 422.4018552303314 400 425.8471677303314C439.375 429.2924802303314 439.375 388.5639646053314 478.75 387.9487302303314C518.125 387.3334958553314 537.8125 414.5268552303314 557.5 423.3862302303314 " transform="rotate(120.75, 400, 400)"></path><path d="M250 412.4288454055786C268.75 403.1710329055786 287.5 372.3507204055786 325 375.3975954055786C362.5 378.4444704055786 362.5 421.3350954055786 400 424.6163454055786C437.5 427.8975954055786 437.5 389.1085329055786 475 388.5225954055786C512.5 387.9366579055786 531.25 413.8350954055786 550 422.2725954055786 " transform="rotate(115, 400, 400)"></path><path d="M257.5 411.80740571022034C275.3125 403.01248383522034 293.125 373.73318696022034 328.75 376.62771821022034C364.375 379.52224946022034 364.375 420.26834321022034 400 423.38553071022034C435.625 426.50271821022034 435.625 389.65310883522034 471.25 389.09646821022034C506.875 388.53982758522034 524.6875 413.14334321022034 542.5 421.15896821022034 " transform="rotate(109.25, 400, 400)"></path><path d="M265 411.1859622001648C281.875 402.8539309501648 298.75 375.1156497001648 332.5 377.8578372001648C366.25 380.6000247001648 366.25 419.2015872001648 400 422.1547122001648C433.75 425.1078372001648 433.75 390.1976809501648 467.5 389.6703372001648C501.25 389.1429934501648 518.125 412.4515872001648 535 420.0453372001648 " transform="rotate(103.5, 400, 400)"></path><path d="M272.5 410.56451869010925C288.4375 402.69537806510925 304.375 376.49811244010925 336.25 379.08795619010925C368.125 381.67779994010925 368.125 418.13483119010925 400 420.92389369010925C431.875 423.71295619010925 431.875 390.74225306510925 463.75 390.24420619010925C495.625 389.74615931510925 511.5625 411.75983119010925 527.5 418.93170619010925 " transform="rotate(97.75, 400, 400)"></path><path d="M280 409.94307708740234C295 402.53682708740234 310 377.88057708740234 340 380.31807708740234C370 382.75557708740234 370 417.06807708740234 400 419.69307708740234C430 422.31807708740234 430 391.28682708740234 460 390.81807708740234C490 390.34932708740234 505 411.06807708740234 520 417.81807708740234 " transform="rotate(92, 400, 400)"></path><path d="M287.5 409.3216335773468C301.5625 402.3782742023468 315.625 379.2630398273468 343.75 381.5481960773468C371.875 383.8333523273468 371.875 416.0013210773468 400 418.4622585773468C428.125 420.9231960773468 428.125 391.8313992023468 456.25 391.3919460773468C484.375 390.9524929523468 498.4375 410.3763210773468 512.5 416.7044460773468 " transform="rotate(86.25, 400, 400)"></path><path d="M295 408.7001919746399C308.125 402.2197232246399 321.25 380.6455044746399 347.5 382.7783169746399C373.75 384.9111294746399 373.75 414.9345669746399 400 417.2314419746399C426.25 419.5283169746399 426.25 392.3759732246399 452.5 391.9658169746399C478.75 391.5556607246399 491.875 409.6845669746399 505 415.5908169746399 " transform="rotate(80.5, 400, 400)"></path><path d="M302.5 408.078750371933C314.6875 402.061172246933 326.875 382.027969121933 351.25 384.008437871933C375.625 385.988906621933 375.625 413.867812871933 400 416.000625371933C424.375 418.133437871933 424.375 392.920547246933 448.75 392.539687871933C473.125 392.158828496933 485.3125 408.992812871933 497.5 414.477187871933 " transform="rotate(74.75, 400, 400)"></path><path d="M310 407.4573087692261C321.25 401.9026212692261 332.5 383.4104337692261 355 385.2385587692261C377.5 387.0666837692261 377.5 412.8010587692261 400 414.7698087692261C422.5 416.7385587692261 422.5 393.4651212692261 445 393.1135587692261C467.5 392.7619962692261 478.75 408.3010587692261 490 413.3635587692261 " transform="rotate(69, 400, 400)"></path><path d="M317.5 406.83586525917053C327.8125 401.74406838417053 338.125 384.79289650917053 358.75 386.46867775917053C379.375 388.14445900917053 379.375 411.73430275917053 400 413.53899025917053C420.625 415.34367775917053 420.625 394.00969338417053 441.25 393.68742775917053C461.875 393.36516213417053 472.1875 407.60930275917053 482.5 412.24992775917053 " transform="rotate(63.25, 400, 400)"></path><path d="M325 406.2144227027893C334.375 401.5855164527893 343.75 386.1753602027893 362.5 387.6987977027893C381.25 389.2222352027893 381.25 410.6675477027893 400 412.3081727027893C418.75 413.9487977027893 418.75 394.5542664527893 437.5 394.2612977027893C456.25 393.9683289527893 465.625 406.9175477027893 475 411.1362977027893 " transform="rotate(57.5, 400, 400)"></path><path d="M332.5 405.5929811000824C340.9375 401.4269654750824 349.375 387.5578248500824 366.25 388.9289186000824C383.125 390.3000123500824 383.125 409.6007936000824 400 411.0773561000824C416.875 412.5539186000824 416.875 395.0988404750824 433.75 394.8351686000824C450.625 394.5714967250824 459.0625 406.2257936000824 467.5 410.0226686000824 " transform="rotate(51.75, 400, 400)"></path><path d="M340 404.9715385437012C347.5 401.2684135437012 355 388.9402885437012 370 390.1590385437012C385 391.3777885437012 385 408.5340385437012 400 409.8465385437012C415 411.1590385437012 415 395.6434135437012 430 395.4090385437012C445 395.1746635437012 452.5 405.5340385437012 460 408.9090385437012 " transform="rotate(46, 400, 400)"></path><path d="M347.5 404.35009598731995C354.0625 401.10986161231995 360.625 390.32275223731995 373.75 391.38915848731995C386.875 392.45556473731995 386.875 407.46728348731995 400 408.61572098731995C413.125 409.76415848731995 413.125 396.18798661231995 426.25 395.98290848731995C439.375 395.77783036231995 445.9375 404.84228348731995 452.5 407.79540848731995 " transform="rotate(40.25, 400, 400)"></path><path d="M355 403.7286534309387C360.625 400.9513096809387 366.25 391.7052159309387 377.5 392.6192784309387C388.75 393.5333409309387 388.75 406.4005284309387 400 407.3849034309387C411.25 408.3692784309387 411.25 396.7325596809387 422.5 396.5567784309387C433.75 396.3809971809387 439.375 404.1505284309387 445 406.6817784309387 " transform="rotate(34.5, 400, 400)"></path><path d="M362.5 403.1072118282318C367.1875 400.7927587032318 371.875 393.0876805782318 381.25 393.8493993282318C390.625 394.6111180782318 390.625 405.3337743282318 400 406.1540868282318C409.375 406.9743993282318 409.375 397.2771337032318 418.75 397.1306493282318C428.125 396.9841649532318 432.8125 403.4587743282318 437.5 405.5681493282318 " transform="rotate(28.75, 400, 400)"></path><path d="M370 402.48576831817627C373.75 400.63420581817627 377.5 394.47014331817627 385 395.07951831817627C392.5 395.68889331817627 392.5 404.26701831817627 400 404.92326831817627C407.5 405.57951831817627 407.5 397.82170581817627 415 397.70451831817627C422.5 397.58733081817627 426.25 402.76701831817627 430 404.45451831817627 " transform="rotate(23, 400, 400)"></path><path d="M377.5 401.86432671546936C380.3125 400.47565484046936 383.125 395.85260796546936 388.75 396.30963921546936C394.375 396.76667046546936 394.375 403.20026421546936 400 403.69245171546936C405.625 404.18463921546936 405.625 398.36627984046936 411.25 398.27838921546936C416.875 398.19049859046936 419.6875 402.07526421546936 422.5 403.34088921546936 " transform="rotate(17.25, 400, 400)"></path><path d="M385 401.24288511276245C386.875 400.31710386276245 388.75 397.23507261276245 392.5 397.53976011276245C396.25 397.84444761276245 396.25 402.13351011276245 400 402.46163511276245C403.75 402.78976011276245 403.75 398.91085386276245 407.5 398.85226011276245C411.25 398.79366636276245 413.125 401.38351011276245 415 402.22726011276245 " transform="rotate(11.5, 400, 400)"></path><path d="M392.5 400.6214416027069C393.4375 400.1585509777069 394.375 398.6175353527069 396.25 398.7698791027069C398.125 398.9222228527069 398.125 401.0667541027069 400 401.2308166027069C401.875 401.3948791027069 401.875 399.4554259777069 403.75 399.4261291027069C405.625 399.3968322277069 406.5625 400.6917541027069 407.5 401.1136291027069 " transform="rotate(5.75, 400, 400)"></path></g></svg>